<svg width="100" height="100" viewBox="0 0 100 100" fill="none" xmlns="http://www.w3.org/2000/svg">
<rect width="100" height="100" fill="black"/>
<path d="M22.9342 53.0049C28.5211 53.0049 33.0509 57.4923 33.0509 63.0286C33.0509 68.5648 28.5211 73.0522 22.9342 73.0522C17.3477 73.0519 12.819 68.5646 12.819 63.0286C12.819 57.4925 17.3477 53.0052 22.9342 53.0049Z" fill="white"/>
<path d="M36.1763 26.9478C41.763 26.9478 46.2927 31.4355 46.293 36.9714C46.293 37.4428 46.2601 37.9066 46.1964 38.3606C45.6865 41.9944 44.9368 46.0937 47.0017 49.1388L49.3788 52.6442L50.181 53.6201L50.8736 52.6443L53.0477 49.4379C55.2164 46.2394 54.4302 41.9178 54.0576 38.0821C54.0266 37.7627 54.0107 37.439 54.0107 37.1115C54.0107 31.5755 58.5395 27.0882 64.126 27.0878C69.7128 27.0878 74.2426 31.5753 74.2427 37.1115C74.2427 37.6497 74.1998 38.1778 74.1173 38.6929C73.5666 42.1308 72.778 45.933 74.5346 48.9474L75.5372 50.5546C76.488 52.0787 78.1913 52.9073 79.9163 53.4083C84.1151 54.6279 87.181 58.4732 87.181 63.0286C87.181 68.5648 82.6526 73.0522 77.0658 73.0522C71.479 73.0522 66.9505 68.5647 66.9505 63.0286C66.9505 62.4342 67.0027 61.8519 67.1029 61.2861C67.7028 57.8967 68.4965 54.139 66.7601 51.159L64.5543 47.3734L64.2336 46.9341L64.0322 47.182L61.6753 50.6579C59.562 53.7745 60.3568 57.9823 60.8529 61.7049C60.9106 62.138 60.9404 62.5798 60.9404 63.0286C60.9404 68.5648 56.4105 73.0522 50.8237 73.0522C45.237 73.0521 40.7084 68.5647 40.7084 63.0286C40.7084 59.096 41.3218 54.7059 39.1084 51.4417L38.9332 51.1832C37.1554 48.5615 33.999 47.2606 31.2213 45.7113C28.1413 43.9935 26.0611 40.7236 26.0611 36.9714C26.0614 31.4355 30.5898 26.9479 36.1763 26.9478Z" fill="white"/>
</svg>
